<svg width="154" height="154" viewBox="0 0 154 154" fill="none" xmlns="http://www.w3.org/2000/svg">
<path d="M113.656 0.5C103.446 0.5 93.1367 4.48438 85.3672 12.2539L76.0039 21.6172C69.5293 28.0918 65.6943 36.3096 64.6484 44.7266L77.3984 46.3203C78.1206 40.543 80.561 34.9897 84.9688 30.582L94.332 21.2188C104.99 10.5605 122.123 10.5605 132.781 21.2188C143.439 31.877 143.439 49.0098 132.781 59.668L123.418 69.0312H123.219C118.811 73.4639 113.432 75.9043 107.68 76.6016L109.273 89.3516C117.69 88.3057 125.908 84.4707 132.383 77.9961L141.746 68.6328C157.26 53.1187 157.26 27.7681 141.746 12.2539C133.977 4.48438 123.866 0.5 113.656 0.5ZM24.207 15.043L15.043 24.207L40.543 49.707L49.707 40.543L24.207 15.043ZM44.7266 64.6484C36.3096 65.6943 28.0918 69.5293 21.6172 76.0039L12.2539 85.3672C-3.26025 100.881 -3.26025 126.232 12.2539 141.746C27.7681 157.26 53.1187 157.26 68.6328 141.746L77.9961 132.383C84.4707 125.908 88.3057 117.69 89.3516 109.273L76.6016 107.68C75.8794 113.457 73.439 119.01 69.0312 123.418L59.668 132.781C49.0098 143.439 31.877 143.439 21.2188 132.781C10.5605 122.123 10.5605 104.99 21.2188 94.332L30.582 84.9688H30.7812C35.189 80.5361 40.5679 78.0957 46.3203 77.3984L44.7266 64.6484ZM113.457 104.293L104.293 113.457L129.793 138.957L138.957 129.793L113.457 104.293Z" fill="#EC5E28"/>
</svg>
